REM DIRINDEX 1\2\3,1\2\4,1\2\5,1\2\6
REM DIRNAME cjc157,folder01,folder02,folder03,folder04,folder05
TITLE ""
FILE "083 083.mp3" MP3
  TRACK 01 AUDIO
    TITLE "0:"
    INDEX 01 00:00:00
  TRACK 02 AUDIO
    TITLE "3:cjc157_3129"
    INDEX 01 00:00:11
  TRACK 03 AUDIO
    TITLE "0:"
    INDEX 01 00:01:21
  TRACK 04 AUDIO
    TITLE "4:cjc157_3130"
    INDEX 01 00:01:64
  TRACK 05 AUDIO
    TITLE "0:"
    INDEX 01 00:02:73
  TRACK 06 AUDIO
    TITLE "5:cjc157_3131"
    INDEX 01 00:03:43
  TRACK 07 AUDIO
    TITLE "0:"
    INDEX 01 00:06:16
  TRACK 08 AUDIO
    TITLE "5:cjc157_3132"
    INDEX 01 00:06:59
  TRACK 09 AUDIO
    TITLE "0:"
    INDEX 01 00:08:54
  TRACK 10 AUDIO
    TITLE "3:cjc157_3133"
    INDEX 01 00:09:28
  TRACK 11 AUDIO
    TITLE "0:"
    INDEX 01 00:10:27
  TRACK 12 AUDIO
    TITLE "4:cjc157_3134"
    INDEX 01 00:10:72
  TRACK 13 AUDIO
    TITLE "0:"
    INDEX 01 00:11:74
  TRACK 14 AUDIO
    TITLE "5:cjc157_3135"
    INDEX 01 00:12:46
  TRACK 15 AUDIO
    TITLE "0:"
    INDEX 01 00:14:31
  TRACK 16 AUDIO
    TITLE "5:cjc157_3136"
    INDEX 01 00:15:01
  TRACK 17 AUDIO
    TITLE "0:"
    INDEX 01 00:17:43
  TRACK 18 AUDIO
    TITLE "3:cjc157_3137"
    INDEX 01 00:18:13
  TRACK 19 AUDIO
    TITLE "0:"
    INDEX 01 00:19:20
  TRACK 20 AUDIO
    TITLE "4:cjc157_3138"
    INDEX 01 00:19:65
  TRACK 21 AUDIO
    TITLE "0:"
    INDEX 01 00:20:63
  TRACK 22 AUDIO
    TITLE "5:cjc157_3139"
    INDEX 01 00:21:33
  TRACK 23 AUDIO
    TITLE "0:"
    INDEX 01 00:23:20
  TRACK 24 AUDIO
    TITLE "3:cjc157_3140"
    INDEX 01 00:23:71
  TRACK 25 AUDIO
    TITLE "0:"
    INDEX 01 00:24:61
  TRACK 26 AUDIO
    TITLE "4:cjc157_3141"
    INDEX 01 00:25:31
  TRACK 27 AUDIO
    TITLE "0:"
    INDEX 01 00:26:44
  TRACK 28 AUDIO
    TITLE "5:cjc157_3142"
    INDEX 01 00:27:12
  TRACK 29 AUDIO
    TITLE "0:"
    INDEX 01 00:28:55
  TRACK 30 AUDIO
    TITLE "5:cjc157_3143"
    INDEX 01 00:29:25
  TRACK 31 AUDIO
    TITLE "0:"
    INDEX 01 00:32:13
  TRACK 32 AUDIO
    TITLE "3:cjc157_3144"
    INDEX 01 00:32:56
  TRACK 33 AUDIO
    TITLE "0:"
    INDEX 01 00:33:66
  TRACK 34 AUDIO
    TITLE "4:cjc157_3145"
    INDEX 01 00:34:38
  TRACK 35 AUDIO
    TITLE "0:"
    INDEX 01 00:35:57
  TRACK 36 AUDIO
    TITLE "5:cjc157_3146"
    INDEX 01 00:36:31
  TRACK 37 AUDIO
    TITLE "0:"
    INDEX 01 00:38:39
  TRACK 38 AUDIO
    TITLE "5:cjc157_3147"
    INDEX 01 00:39:11
  TRACK 39 AUDIO
    TITLE "0:"
    INDEX 01 00:42:18
  TRACK 40 AUDIO
    TITLE "3:cjc157_3148"
    INDEX 01 00:42:65
  TRACK 41 AUDIO
    TITLE "0:"
    INDEX 01 00:44:28
  TRACK 42 AUDIO
    TITLE "4:cjc157_3149"
    INDEX 01 00:45:00
  TRACK 43 AUDIO
    TITLE "0:"
    INDEX 01 00:46:27
  TRACK 44 AUDIO
    TITLE "5:cjc157_3150"
    INDEX 01 00:46:72
  TRACK 45 AUDIO
    TITLE "0:"
    INDEX 01 00:48:61
  TRACK 46 AUDIO
    TITLE "3:cjc157_3151"
    INDEX 01 00:49:35
  TRACK 47 AUDIO
    TITLE "0:"
    INDEX 01 00:50:25
  TRACK 48 AUDIO
    TITLE "4:cjc157_3152"
    INDEX 01 00:50:70
  TRACK 49 AUDIO
    TITLE "0:"
    INDEX 01 00:51:73
  TRACK 50 AUDIO
    TITLE "5:cjc157_3153"
    INDEX 01 00:52:43
  TRACK 51 AUDIO
    TITLE "0:"
    INDEX 01 00:54:40
  TRACK 52 AUDIO
    TITLE "5:cjc157_3154"
    INDEX 01 00:55:08
  TRACK 53 AUDIO
    TITLE "0:"
    INDEX 01 00:57:19
  TRACK 54 AUDIO
    TITLE "3:cjc157_3155"
    INDEX 01 00:57:68
  TRACK 55 AUDIO
    TITLE "0:"
    INDEX 01 00:59:06
  TRACK 56 AUDIO
    TITLE "4:cjc157_3156"
    INDEX 01 00:59:55
  TRACK 57 AUDIO
    TITLE "0:"
    INDEX 01 01:00:53
  TRACK 58 AUDIO
    TITLE "5:cjc157_3157"
    INDEX 01 01:01:29
  TRACK 59 AUDIO
    TITLE "0:"
    INDEX 01 01:03:63
  TRACK 60 AUDIO
    TITLE "3:cjc157_3158"
    INDEX 01 01:04:33
  TRACK 61 AUDIO
    TITLE "0:"
    INDEX 01 01:05:42
  TRACK 62 AUDIO
    TITLE "4:cjc157_3159"
    INDEX 01 01:06:18
  TRACK 63 AUDIO
    TITLE "0:"
    INDEX 01 01:07:00
  TRACK 64 AUDIO
    TITLE "5:cjc157_3160"
    INDEX 01 01:07:63
  TRACK 65 AUDIO
    TITLE "0:"
    INDEX 01 01:09:38
  TRACK 66 AUDIO
    TITLE "5:cjc157_3161"
    INDEX 01 01:10:12
  TRACK 67 AUDIO
    TITLE "0:"
    INDEX 01 01:12:03
  TRACK 68 AUDIO
    TITLE "3:cjc157_3162"
    INDEX 01 01:12:48
  TRACK 69 AUDIO
    TITLE "0:"
    INDEX 01 01:13:55
  TRACK 70 AUDIO
    TITLE "4:cjc157_3163"
    INDEX 01 01:14:27
  TRACK 71 AUDIO
    TITLE "0:"
    INDEX 01 01:15:48
  TRACK 72 AUDIO
    TITLE "5:cjc157_3164"
    INDEX 01 01:16:18
  TRACK 73 AUDIO
    TITLE "0:"
    INDEX 01 01:18:68
